<?xml version="1.0" encoding="UTF-8" standalone="no"?>
<!-- Created with Inkscape (http://www.inkscape.org/) -->

<svg
   xmlns:osb="http://www.openswatchbook.org/uri/2009/osb"
   xmlns:dc="http://purl.org/dc/elements/1.1/"
   xmlns:cc="http://creativecommons.org/ns#"
   xmlns:rdf="http://www.w3.org/1999/02/22-rdf-syntax-ns#"
   xmlns:svg="http://www.w3.org/2000/svg"
   xmlns="http://www.w3.org/2000/svg"
   xmlns:sodipodi="http://sodipodi.sourceforge.net/DTD/sodipodi-0.dtd"
   xmlns:inkscape="http://www.inkscape.org/namespaces/inkscape"
   width="468px"
   height="60px"
   id="svg2989"
   version="1.1"
   inkscape:version="0.48.4 r9939"
   sodipodi:docname="AudioNodeLogo2.svg">
  <defs
     id="defs2991">
    <linearGradient
       id="linearGradient5487"
       osb:paint="solid">
      <stop
         style="stop-color:#000000;stop-opacity:1;"
         offset="0"
         id="stop5489" />
    </linearGradient>
    <linearGradient
       id="linearGradient5479"
       osb:paint="solid">
      <stop
         style="stop-color:#000000;stop-opacity:1;"
         offset="0"
         id="stop5481" />
    </linearGradient>
    <inkscape:perspective
       sodipodi:type="inkscape:persp3d"
       inkscape:vp_x="0 : 30 : 1"
       inkscape:vp_y="0 : 1000 : 0"
       inkscape:vp_z="468 : 30 : 1"
       inkscape:persp3d-origin="234 : 20 : 1"
       id="perspective3049" />
  </defs>
  <sodipodi:namedview
     id="base"
     pagecolor="#ffffff"
     bordercolor="#666666"
     borderopacity="1.0"
     inkscape:pageopacity="0.0"
     inkscape:pageshadow="2"
     inkscape:zoom="1.2"
     inkscape:cx="-26"
     inkscape:cy="-3.3333333"
     inkscape:document-units="px"
     inkscape:current-layer="layer1"
     showgrid="false"
     inkscape:snap-global="false"
     inkscape:snap-to-guides="false"
     inkscape:snap-bbox="false"
     inkscape:snap-nodes="false"
     inkscape:snap-grids="true"
     inkscape:window-width="1366"
     inkscape:window-height="745"
     inkscape:window-x="-8"
     inkscape:window-y="-8"
     inkscape:window-maximized="1" />
  <metadata
     id="metadata2994">
    <rdf:RDF>
      <cc:Work
         rdf:about="">
        <dc:format>image/svg+xml</dc:format>
        <dc:type
           rdf:resource="http://purl.org/dc/dcmitype/StillImage" />
        <dc:title />
      </cc:Work>
    </rdf:RDF>
  </metadata>
  <g
     id="layer1"
     inkscape:label="Layer 1"
     inkscape:groupmode="layer">
    <g
       style="font-size:40px;font-style:normal;font-weight:normal;line-height:125%;letter-spacing:0px;word-spacing:0px;fill:#000000;fill-opacity:1;stroke:none;font-family:Sans"
       id="flowRoot2997"
       transform="matrix(0.86450291,0,0,0.54032781,51.054924,19.025408)">
      <path
         d="M 39.066406,38.422939 50.0625,9.7901266 l 4.082031,0 11.71875,28.6328124 -4.316406,0 -3.339844,-8.671875 -11.972656,0 -3.144531,8.671875 z m 8.261719,-11.757812 9.707031,0 -2.988281,-7.929688 c -0.911472,-2.408832 -1.588555,-4.387997 -2.03125,-5.9375 -0.364596,1.835961 -0.878918,3.658876 -1.542969,5.46875 z"
         id="path3051"
         inkscape:connector-curvature="0" />
      <path
         d="m 82.074219,38.422939 0,-3.046875 c -1.614598,2.343751 -3.808606,3.515625 -6.582032,3.515625 -1.223966,0 -2.366543,-0.234375 -3.427734,-0.703125 -1.061203,-0.468749 -1.848963,-1.057941 -2.363281,-1.767578 -0.514326,-0.709633 -0.875654,-1.578773 -1.083985,-2.607422 -0.143231,-0.690099 -0.214846,-1.783848 -0.214843,-3.28125 l 0,-12.851562 3.515625,0 0,11.503906 c -6e-6,1.835945 0.07161,3.072923 0.214843,3.710937 0.221348,0.924484 0.690098,1.650395 1.40625,2.177735 0.716138,0.527346 1.601554,0.791018 2.65625,0.791015 1.054677,3e-6 2.044259,-0.270179 2.96875,-0.810547 0.924465,-0.54036 1.578762,-1.276037 1.962891,-2.207031 0.384099,-0.930983 0.576156,-2.281893 0.576172,-4.052734 l 0,-11.113281 3.515625,0 0,20.742187 z"
         id="path3053"
         inkscape:connector-curvature="0" />
      <path
         d="m 104.20313,38.422939 0,-2.617187 c -1.31512,2.057292 -3.24872,3.085937 -5.800786,3.085937 -1.653655,0 -3.173835,-0.455729 -4.560547,-1.367187 -1.386723,-0.911457 -2.460941,-2.184242 -3.222656,-3.81836 -0.761721,-1.634108 -1.14258,-3.512361 -1.142579,-5.634765 -10e-7,-2.070301 0.345051,-3.948554 1.035157,-5.634766 0.690101,-1.68618 1.725256,-2.978497 3.105468,-3.876953 1.380202,-0.898417 2.923169,-1.347635 4.628907,-1.347656 1.249988,2.1e-5 2.363266,0.263692 3.339846,0.791015 0.97655,0.527364 1.77082,1.214212 2.38281,2.060547 l 0,-10.2734374 3.49609,0 0,28.6328124 z M 93.089844,28.071377 c -5e-6,2.656257 0.55989,4.641932 1.679687,5.957031 1.119784,1.315107 2.441397,1.972658 3.964844,1.972656 1.536445,2e-6 2.841785,-0.628252 3.916015,-1.884766 1.0742,-1.256504 1.61131,-3.17382 1.61133,-5.751953 -2e-5,-2.838528 -0.54689,-4.92186 -1.64063,-6.25 -1.09376,-1.328107 -2.44141,-1.992169 -4.042965,-1.992187 -1.562509,1.8e-5 -2.867846,0.638038 -3.916016,1.914062 -1.048182,1.276057 -1.57227,3.287774 -1.572265,6.035157 z"
         id="path3055"
         inkscape:connector-curvature="0" />
      <path
         d="m 113.03125,13.833095 0,-4.0429684 3.51563,0 0,4.0429684 z m 0,24.589844 0,-20.742187 3.51563,0 0,20.742187 z"
         id="path3057"
         inkscape:connector-curvature="0" />
      <path
         d="m 120.60938,28.051845 c -1e-5,-3.841131 1.0677,-6.686181 3.20312,-8.535156 1.78385,-1.536438 3.95832,-2.304666 6.52344,-2.304687 2.85155,2.1e-5 5.18227,0.934265 6.99218,2.802734 1.80988,1.868506 2.71483,4.449884 2.71485,7.744141 -2e-5,2.669278 -0.40041,4.768886 -1.20117,6.298828 -0.8008,1.52995 -1.96617,2.7181 -3.4961,3.564453 -1.52996,0.846354 -3.19988,1.269531 -5.00976,1.269531 -2.90366,0 -5.25066,-0.930989 -7.04102,-2.792969 -1.79036,-1.861975 -2.68555,-4.544264 -2.68554,-8.046875 z m 3.61328,0 c -1e-5,2.656258 0.57942,4.645188 1.73828,5.966797 1.15884,1.321618 2.61718,1.982424 4.375,1.982422 1.74478,2e-6 3.1966,-0.664059 4.35547,-1.992187 1.15883,-1.32812 1.73826,-3.352857 1.73828,-6.074219 -2e-5,-2.565091 -0.5827,-4.508449 -1.74805,-5.830078 -1.16538,-1.321597 -2.61394,-1.982404 -4.3457,-1.982422 -1.75782,1.8e-5 -3.21616,0.65757 -4.375,1.972656 -1.15886,1.315119 -1.73829,3.300794 -1.73828,5.957031 z"
         id="path3059"
         inkscape:connector-curvature="0" />
      <path
         d="m 144.59375,38.422939 0,-28.6328124 3.88672,0 15.03906,22.4804684 0,-22.4804684 3.63281,0 0,28.6328124 -3.88672,0 -15.03906,-22.5 0,22.5 z"
         id="path3061"
         inkscape:connector-curvature="0" />
      <path
         d="m 171.78125,28.051845 c 0,-3.841131 1.06771,-6.686181 3.20312,-8.535156 1.78385,-1.536438 3.95833,-2.304666 6.52344,-2.304687 2.85155,2.1e-5 5.18228,0.934265 6.99219,2.802734 1.80988,1.868506 2.71482,4.449884 2.71484,7.744141 -2e-5,2.669278 -0.40041,4.768886 -1.20117,6.298828 -0.8008,1.52995 -1.96616,2.7181 -3.49609,3.564453 -1.52996,0.846354 -3.19988,1.269531 -5.00977,1.269531 -2.90365,0 -5.25065,-0.930989 -7.04101,-2.792969 -1.79037,-1.861975 -2.68555,-4.544264 -2.68555,-8.046875 z m 3.61328,0 c 0,2.656258 0.57942,4.645188 1.73828,5.966797 1.15885,1.321618 2.61718,1.982424 4.375,1.982422 1.74478,2e-6 3.1966,-0.664059 4.35547,-1.992187 1.15884,-1.32812 1.73827,-3.352857 1.73828,-6.074219 -1e-5,-2.565091 -0.5827,-4.508449 -1.74804,-5.830078 -1.16538,-1.321597 -2.61395,-1.982404 -4.34571,-1.982422 -1.75782,1.8e-5 -3.21615,0.65757 -4.375,1.972656 -1.15886,1.315119 -1.73828,3.300794 -1.73828,5.957031 z"
         id="path3063"
         inkscape:connector-curvature="0" />
      <path
         d="m 208.8125,38.422939 0,-2.617187 c -1.31512,2.057292 -3.24871,3.085937 -5.80078,3.085937 -1.65366,0 -3.17384,-0.455729 -4.56055,-1.367187 -1.38672,-0.911457 -2.46094,-2.184242 -3.22265,-3.81836 -0.76172,-1.634108 -1.14258,-3.512361 -1.14258,-5.634765 0,-2.070301 0.34505,-3.948554 1.03515,-5.634766 0.6901,-1.68618 1.72526,-2.978497 3.10547,-3.876953 1.3802,-0.898417 2.92317,-1.347635 4.62891,-1.347656 1.24999,2.1e-5 2.36327,0.263692 3.33984,0.791015 0.97655,0.527364 1.77082,1.214212 2.38281,2.060547 l 0,-10.2734374 3.4961,0 0,28.6328124 z M 197.69922,28.071377 c -1e-5,2.656257 0.55989,4.641932 1.67969,5.957031 1.11978,1.315107 2.44139,1.972658 3.96484,1.972656 1.53645,2e-6 2.84178,-0.628252 3.91602,-1.884766 1.0742,-1.256504 1.61131,-3.17382 1.61132,-5.751953 -1e-5,-2.838528 -0.54689,-4.92186 -1.64062,-6.25 -1.09376,-1.328107 -2.44142,-1.992169 -4.04297,-1.992187 -1.56251,1.8e-5 -2.86785,0.638038 -3.91602,1.914062 -1.04818,1.276057 -1.57227,3.287774 -1.57226,6.035157 z"
         id="path3065"
         inkscape:connector-curvature="0" />
      <path
         d="m 231.82031,31.743252 3.63281,0.449218 c -0.57293,2.1224 -1.63413,3.769534 -3.18359,4.941407 -1.54949,1.171875 -3.52866,1.757812 -5.9375,1.757812 -3.03386,0 -5.43946,-0.934244 -7.2168,-2.802734 -1.77734,-1.868486 -2.66601,-4.488926 -2.66601,-7.861328 0,-3.48957 0.89843,-6.197901 2.69531,-8.125 1.79687,-1.927064 4.1276,-2.890604 6.99219,-2.890625 2.77342,2.1e-5 5.03905,0.94403 6.79687,2.832031 1.7578,1.888037 2.6367,4.544284 2.63672,7.96875 -2e-5,0.208343 -0.007,0.520843 -0.0195,0.9375 l -15.46875,0 c 0.1302,2.278653 0.77473,4.023443 1.93359,5.234375 1.15885,1.21094 2.60416,1.816408 4.33594,1.816406 1.28905,2e-6 2.38931,-0.338539 3.30078,-1.015625 0.91145,-0.677079 1.6341,-1.757807 2.16797,-3.242187 z m -11.54297,-5.683594 11.58203,0 c -0.15626,-1.744778 -0.59897,-3.05337 -1.32812,-3.925781 -1.11981,-1.354149 -2.57163,-2.031232 -4.35547,-2.03125 -1.61459,1.8e-5 -2.97201,0.540382 -4.07226,1.621093 -1.10027,1.080745 -1.70899,2.526056 -1.82618,4.335938 z"
         id="path3067"
         inkscape:connector-curvature="0" />
    </g>
    <g
       id="g3016"
       transform="matrix(0.86450291,0,0,0.54032781,268.62149,5.0669354)">
      <rect
         id="rect3006"
         height="100"
         width="40.963001"
         x="29.518999"
         y="0" />
      <rect
         id="rect3008"
         height="40.964001"
         width="100"
         y="29.518"
         x="0" />
    </g>
    <path
       sodipodi:type="arc"
       style="fill:#b3b3b3"
       id="path3147"
       sodipodi:cx="301.66666"
       sodipodi:cy="22.916666"
       sodipodi:rx="15"
       sodipodi:ry="15.416667"
       d="m 316.66666,22.916666 a 15,15.416667 0 1 1 -30,0 15,15.416667 0 1 1 30,0 z"
       transform="matrix(0.86450291,0,0,0.54032781,51.054924,19.025408)" />
    <path
       style="fill:none;stroke:#000000;stroke-width:0.68345809px;stroke-linecap:butt;stroke-linejoin:miter;stroke-opacity:1"
       d="m 269.3419,24.428686 c 1.20071,0.150088 2.39429,0.324455 3.6021,0.450271 0.14265,0.01486 2.16126,-0.01189 2.16126,0 0,0.150093 -0.96056,0 -0.72043,0 0.48028,0 0.96056,0 1.44085,0 2.33595,0 4.76868,0 6.48376,0 0.72042,0 1.44084,0 2.16126,0 0.24014,0 0.72041,-0.150091 0.72041,0 0,0.150093 -0.72041,-0.150091 -0.72041,0 0,0.212263 0.56856,0.260423 0.72041,0.450272 0.0947,0.118396 0,1.565638 0,1.801096 0,1.500906 0,3.001818 0,4.50273 0,0.109205 -0.0232,1.336338 0,1.350819 0.16982,0.106132 0.50563,-0.06712 0.72043,0 0.60751,0.18985 0.83333,0.710693 1.44083,0.900548 1.28075,0.400242 0.40026,-0.250154 0.72043,-0.450277 0.3396,-0.212256 1.10122,0.212262 1.44084,0 0.1698,-0.10613 -0.16981,-0.344139 0,-0.450271 0.1698,-0.10613 0.48027,0 0.72042,0 1.68098,0 3.36196,0 5.04292,0 0.24015,0 -0.48028,0 -0.72041,0 -0.72042,0 -1.44084,0 -2.16125,0 -0.72043,0 -1.44084,0 -2.16126,0 -0.24015,0 -0.72042,0.150092 -0.72042,0 0,-0.150093 0.72042,-0.150093 0.72042,0 0,0.212263 -0.72042,0.238015 -0.72042,0.450271 0,0.150094 0.48027,0 0.72042,0 0.24013,0 0.48027,0 0.72042,0 1.2007,0 2.40139,0 3.60209,0 0.48018,0 0.96067,0 1.44082,0 0.24015,0 0.72043,-0.150087 0.72043,0 0,0.150094 -0.48028,0 -0.72043,0 -0.72041,0 -1.44082,0 -2.16124,0 -1.44083,0 -2.88167,0 -4.32251,0 -0.24014,0 -0.72042,0.150094 -0.72042,0 0,-0.150087 0.96055,0 0.72042,0 -0.72042,0 -1.44084,0 -2.16127,0 -0.24013,0 -0.7204,0.150094 -0.7204,0 0,-0.150087 0.48027,0 0.7204,0"
       id="path3938"
       inkscape:connector-curvature="0" />
    <path
       style="fill:none;stroke:#000000;stroke-width:0.47842067;stroke-linecap:butt;stroke-linejoin:miter;stroke-miterlimit:4;stroke-opacity:1;stroke-dasharray:none"
       d="m 270.06232,23.077866 c 2.01361,0 0.49747,0.05574 4.32251,-0.900548 0,2.551548 10e-6,5.103093 0,7.654645 -1.68097,0 -3.36195,0 -5.04293,0 l 15.84921,0 c 0.48028,-0.750456 0.96057,-1.500911 1.44086,-2.251367 0.24013,0 0.5506,0.106131 0.7204,0 0.1698,-0.106131 -0.24013,-0.450271 0,-0.450271 0.24015,0 0,0.600363 0,0.450271 0,-0.450271 0,-0.900548 0,-1.35082 0,-0.450271 0,-0.900547 0,-1.350819 0,-0.150091 -0.24013,-0.450271 0,-0.450271 0.24015,0 0,0.600364 0,0.450271 0,-0.300183 0,-0.600364 0,-0.900547 0,-0.150087 -0.1698,-0.344141 0,-0.450272 0.1698,-0.106131 0.55062,0.106131 0.72043,0 0.1698,-0.106131 0,-0.300185 0,-0.450272 0,-0.150092 0,-0.300185 0,-0.450278"
       id="path3940"
       inkscape:connector-curvature="0" />
    <path
       style="fill:none;stroke:#000000;stroke-width:0.68345809px;stroke-linecap:butt;stroke-linejoin:miter;stroke-opacity:1"
       d="m 287.35237,30.732506 c 0,-1.050635 0,-2.101275 0,-3.15191 0,-0.150092 0,-0.300185 0,-0.450271 0,-0.150092 -0.24013,-0.450277 0,-0.450277 0.24015,0 0,0.300185 0,0.450277"
       id="path3942"
       inkscape:connector-curvature="0" />
    <path
       style="fill:none;stroke:#000000;stroke-width:0.68345809px;stroke-linecap:butt;stroke-linejoin:miter;stroke-opacity:1"
       d="m 280.14819,28.481144 -2.88167,5.403278"
       id="path3944"
       inkscape:connector-curvature="0" />
    <path
       style="fill:none;stroke:#000000;stroke-width:0.68345809px;stroke-linecap:butt;stroke-linejoin:miter;stroke-opacity:1"
       d="m 270.06232,22.177318 19.45132,10.356285 c -0.24015,-0.750456 -0.51913,-1.496465 -0.72042,-2.251368 -0.11148,-0.418019 0,-0.926349 0,-1.350819 0,-0.900548 0,-1.801091 0,-2.70164"
       id="path3946"
       inkscape:connector-curvature="0" />
    <path
       style="fill:none;stroke:#000000;stroke-width:0.06834581;stroke-linecap:butt;stroke-linejoin:miter;stroke-miterlimit:4;stroke-opacity:1;stroke-dasharray:none"
       d="m 268.6215,21.727046 c 1.0573,0.72805 2.43723,-0.182015 3.60208,0 0.73672,0.115112 1.42455,0.335155 2.16125,0.450272 0.23299,0.03642 0.50564,-0.06712 0.72043,0 0.30375,0.09492 0.41667,0.355347 0.72042,0.45027 0.42957,0.134251 1.28895,-0.284773 1.44084,0 0.2278,0.427169 -0.22783,0.923654 0,1.350822 0.0759,0.142392 0.55061,-0.106131 0.72041,0 0.16979,0.10613 -0.1698,0.344145 0,0.450276 0.16979,0.106132 0.50563,-0.06712 0.72041,0 0.60752,0.189849 0.83334,0.710694 1.44085,0.900543 0.99371,0.310547 0.64439,-0.545304 1.44085,0.450276 0.10738,0.134245 0,0.300179 0,0.450271 0.48027,0.300185 1.06407,0.547325 1.44082,0.900549 0.26641,0.249766 -0.33961,0.688285 0,0.900543 0.1698,0.106131 0.55062,-0.106133 0.72042,0 0.16982,0.106131 -0.10739,0.316026 0,0.450276 0.15189,0.18985 0.56854,0.260422 0.72042,0.450272 0.1074,0.134245 -0.1698,0.34414 0,0.45027 0.16981,0.106132 0.50563,-0.06711 0.72041,0 2.99822,0.936967 -0.77014,-0.03107 0.72043,0.900549 0.16981,0.106131 0.55062,-0.106131 0.72043,0 0.16979,0.106131 -0.16981,0.344141 0,0.450271 0.16979,0.106131 0.5506,-0.10613 0.7204,0 0.1698,0.106131 -0.1698,0.344146 0,0.450277 0.1698,0.106131 0.50565,-0.06712 0.72043,0 2.99821,0.93696 -0.77016,-0.03107 0.72042,0.900544 0.1698,0.10613 0.55061,-0.106132 0.72042,0 0.1698,0.10613 -0.16981,0.344145 0,0.450276 0.1698,0.106131 0.55062,-0.106131 0.72042,0 0.16981,0.106131 0,0.300178 0,0.450271 0,0.450271 -0.22781,0.923654 0,1.350819 0.0759,0.142388 0.61302,-0.134243 0.72042,0 0.21478,0.268489 -0.15189,0.615769 0,0.900548 0.74954,1.405448 0.48028,-0.150091 1.44084,0.450272 0.23927,0.149557 -0.23929,0.750991 0,0.900548 0.1698,0.106132 0.55059,-0.106131 0.72041,0 0.16981,0.106132 -0.16982,0.344142 0,0.450272 0.24173,0.151087 1.1991,-0.151087 1.44084,0 0.16982,0.106131 -0.10739,0.316027 0,0.45027 0.0957,0.119554 1.96999,1.291044 2.16125,1.350821 0.21479,0.06712 0.55062,-0.106131 0.72043,0 0.1698,0.10613 -0.16981,0.344146 0,0.450276 0.1698,0.106131 0.55061,-0.10613 0.72042,0 0.16979,0.106131 -0.16981,0.34414 0,0.450271 0.16979,0.106133 0.50562,-0.06712 0.72043,0 0.6075,0.189851 0.83331,0.710694 1.44083,0.90055 0.21479,0.06711 0.5506,-0.106132 0.72041,0 0.16981,0.10613 0,0.300178 0,0.45027"
       id="path3977"
       inkscape:connector-curvature="0" />
    <path
       style="fill:none;stroke:#000000;stroke-width:0.68345809px;stroke-linecap:butt;stroke-linejoin:miter;stroke-opacity:1"
       d="m 269.3419,26.229776 c 3.12182,0 6.24364,0 9.36544,0 0.48029,0 0.96056,0 1.44085,0 0.24013,0 0.72042,-0.150092 0.72042,0 0,0.150093 -0.96056,0 -0.72042,0 0.48029,0 0.96056,0 1.44085,0 0.1747,0 2.13808,-0.01448 2.16124,0 0.33961,0.212263 -0.3396,0.688287 0,0.900549 0.16982,0.106131 0.55062,-0.106132 0.72042,0 0.16981,0.106131 -0.1698,0.34414 0,0.450271 0.16981,0.106131 0.55061,-0.106131 0.72041,0 0.16982,0.106131 0,0.300184 0,0.450272 0,0.150092 0.24015,0.450276 0,0.450276 -0.24012,0 0,-0.600364 0,-0.450276 0,1.740828 0,1.849882 0,2.701638 0,0.300185 0,0.600365 0,0.900549 0,0.150092 0.24015,0.450272 0,0.450272 -0.24012,0 -0.24012,-0.450272 0,-0.450272 0.23231,0 1.04057,0.775451 1.44086,0.900548 0.21478,0.06711 0.48027,0 0.7204,0 3.60211,0 7.2042,0 10.8063,0"
       id="path3979"
       inkscape:connector-curvature="0" />
    <path
       style="fill:none;stroke:#000000;stroke-width:0.06834581;stroke-linecap:butt;stroke-linejoin:miter;stroke-miterlimit:4;stroke-opacity:1;stroke-dasharray:none"
       d="m 277.26652,27.580596 c 0,0.900548 0,1.80109 0,2.701639 0,0.150093 -0.16981,0.344141 0,0.450271 0.1698,0.106131 0.55061,-0.10613 0.72041,0 0.16979,0.106131 -0.22782,0.402815 0,0.450277 0.68346,0.142387 1.44083,0 2.16126,0 0.72042,0 1.44085,0 2.16125,0 2.16126,0 4.32253,0 6.48378,0"
       id="path3981"
       inkscape:connector-curvature="0" />
    <path
       style="fill:none;stroke:#000000;stroke-width:0.20503743;stroke-linecap:butt;stroke-linejoin:miter;stroke-miterlimit:4;stroke-opacity:1;stroke-dasharray:none"
       d="m 279.42776,26.680048 c 0.96056,0.600363 1.99763,1.156453 2.88168,1.801096 0.56348,0.410876 0.88656,0.935086 1.44084,1.350819 0.65225,0.489187 1.54996,0.841394 2.16126,1.35082 1.05446,0.878736 2.34438,2.658877 3.6021,3.602183 0.65224,0.48919 1.59609,0.820984 2.16125,1.350818 0.42125,0.394916 0.2648,0.971116 0.72043,1.350819 0.32217,0.268496 1.06115,0.21296 1.44083,0.450278 0.16981,0.106131 -0.16981,0.344139 0,0.450272 0.16981,0.10613 0.72042,-0.150093 0.72042,0 0,0.150092 -0.48029,0 -0.72042,0"
       id="path3985"
       inkscape:connector-curvature="0" />
    <path
       style="fill:none;stroke:#000000;stroke-width:0.68345809px;stroke-linecap:butt;stroke-linejoin:miter;stroke-opacity:1"
       d="m 285.91154,32.533603 c 1.95431,-0.549493 3.73243,-0.450276 5.76335,-0.450276 0.24015,0 0.50563,0.06712 0.72043,0 0.30375,-0.09493 0.48028,-0.30018 0.72041,-0.450272"
       id="path3987"
       inkscape:connector-curvature="0" />
    <path
       style="fill:none;stroke:#000000;stroke-width:0.68345809px;stroke-linecap:butt;stroke-linejoin:miter;stroke-opacity:1"
       d="m 287.35237,29.831963 c 0.72043,0.750457 1.44085,1.500908 2.16127,2.251364 0.24013,0 0.55062,-0.106132 0.72042,0 0.16981,0.10613 -0.1698,0.344145 0,0.450276 0.16981,0.106131 0.50563,-0.06712 0.72042,0 0.89022,0.278199 0.72041,0.434731 0.72041,0.900542"
       id="path3989"
       inkscape:connector-curvature="0" />
    <path
       style="fill:none;stroke:#000000;stroke-width:0.27338326;stroke-linecap:butt;stroke-linejoin:miter;stroke-miterlimit:4;stroke-opacity:1;stroke-dasharray:none"
       d="m 270.06232,21.727046 c 0.96056,0.600365 1.92112,1.200728 2.88168,1.801092 0,0.150092 -0.10741,0.316026 0,0.450272 0.15188,0.189854 0.41667,0.355345 0.72041,0.450276 0.2148,0.06711 0.55062,-0.106131 0.72042,0 0.16981,0.106132 -0.1698,0.34414 0,0.450271 0.16981,0.106131 0.55062,-0.106131 0.72043,0 0.36021,0.225139 -0.36022,1.125681 0,1.350819 0.1698,0.106132 0.5506,-0.10613 0.72042,0 0.1698,0.106132 -0.16982,0.344141 0,0.450272 0.24103,0.150654 1.19979,-0.150654 1.44084,0 0.23372,0.146077 -0.23372,0.754471 0,0.900548 0.1698,0.106131 0.55061,-0.106131 0.72041,0 0.16979,0.106131 -0.1698,0.344139 0,0.450272 0.16979,0.106131 0.55061,-0.106133 0.72041,0 0.16982,0.106131 -0.1698,0.344145 0,0.450276 0.16982,0.106132 0.50564,-0.06712 0.72042,0 0.30377,0.09492 0.41668,0.355347 0.72043,0.450272 0.21478,0.06712 0.55061,-0.106131 0.72042,0 0.33961,0.212262 -0.33961,0.688285 0,0.900547 6.9e-4,4.28e-4 2.15799,-5.39e-4 2.16125,0 0.32218,0.06711 0.39096,0.39879 0.72042,0.450272 0.69891,0.109206 1.44083,0 2.16126,0 0.24014,0 0.50563,-0.06712 0.72043,0 0.30375,0.09492 0.41665,0.355347 0.7204,0.450271 0.28565,0.08927 2.01398,-0.09205 2.16127,0 0.1698,0.106131 -0.16981,0.344146 0,0.450277 0.1698,0.106131 0.72042,-0.150092 0.72042,0 0,0.150088 -0.48029,0 -0.72042,0 0.24013,0.150088 0.56854,0.260422 0.72042,0.450272 0.10738,0.134244 -0.1698,0.34414 0,0.450272 0.16981,0.10613 0.55061,-0.106132 0.72042,0 0.16981,0.10613 -0.16981,0.344145 0,0.450276 0.16981,0.106131 0.5506,-0.106131 0.72041,0 0.16981,0.106131 0.24015,0.450271 0,0.450271 -0.24013,0 0,-0.600364 0,-0.450271 0,0.300178 0,0.600363 0,0.900542 0,0.150094 -0.16981,0.344146 0,0.450277 0.16981,0.106131 0.55061,-0.106131 0.72043,0 0.1698,0.106131 -0.16982,0.34414 0,0.450271 0.1698,0.106131 0.55059,-0.106131 0.72041,0 0.33962,0.212263 -0.3396,0.688286 0,0.900548 0.16981,0.106132 0.55061,-0.106131 0.72042,0 0.33961,0.212258 -0.3396,0.688287 0,0.900543 0.16981,0.106133 0.55063,-0.106131 0.72042,0 0.16982,0.106133 0.24013,0.450277 0,0.450277 -0.24013,0 -0.24013,-0.450277 0,-0.450277 0.33962,0 0.56855,0.260423 0.72041,0.450277 0.14283,0.17853 -0.14726,1.258764 0,1.35082 0.16982,0.106131 0.72041,-0.150092 0.72041,0 0,0.150087 -0.48026,0 -0.72041,0 0.24015,1.050634 0.48028,2.101276 0.72041,3.15191 0.24015,0 0.55064,-0.10613 0.72043,0 0.16981,0.106131 0,0.300184 0,0.450272 0,0.150093 0,0.300184 0,0.450277"
       id="path3995"
       inkscape:connector-curvature="0" />
    <path
       style="fill:#ffffff;fill-opacity:1;stroke:#ffffff;stroke-width:0.06834581;stroke-linecap:butt;stroke-linejoin:miter;stroke-miterlimit:4;stroke-opacity:1;stroke-dasharray:none"
       d="m 269.3419,24.878957 c 0.96055,0 1.92113,0 2.88168,0 2.88168,0 5.76335,0 8.64503,0 0.26456,0 2.85268,-0.01811 2.88167,0 0.16982,0.106131 0.24014,0.450272 0,0.450272 -0.24013,0 0,-0.300179 0,-0.450272 -4.8028,0 -9.60558,0 -14.40838,0 z"
       id="path4033"
       inkscape:connector-curvature="0" />
    <path
       style="fill:none;stroke:#000000;stroke-width:0.68345809px;stroke-linecap:butt;stroke-linejoin:miter;stroke-opacity:1"
       d="m 269.3419,24.878957 c 6.48378,0 12.96754,0 19.45132,0"
       id="path5493"
       inkscape:connector-curvature="0" />
    <path
       style="fill:none;stroke:#000000;stroke-width:0.68345809px;stroke-linecap:butt;stroke-linejoin:miter;stroke-opacity:1"
       d="m 269.3419,24.428686 18.01047,0"
       id="path5497"
       inkscape:connector-curvature="0" />
    <path
       style="fill:none;stroke:#ffffff;stroke-width:0.68345809px;stroke-linecap:butt;stroke-linejoin:miter;stroke-opacity:1"
       d="m 269.3419,23.528138 12.24714,0 0.7204,8.104917 15.84923,0"
       id="path5515"
       inkscape:connector-curvature="0" />
    <path
       style="fill:none;stroke:#ffffff;stroke-width:0.68345809px;stroke-linecap:butt;stroke-linejoin:miter;stroke-opacity:1"
       d="m 299.59951,5.9674839 0.72042,6.7540981 10.80627,0 -0.72041,9.906006"
       id="path5521"
       inkscape:connector-curvature="0" />
    <path
       style="fill:none;stroke:#ffffff;stroke-width:0.68345809px;stroke-linecap:butt;stroke-linejoin:miter;stroke-opacity:1"
       d="M 353.63093,39.737971 339.94298,39.2877 340.6634,31.633055 325.5346,31.182783"
       id="path5523"
       inkscape:connector-curvature="0" />
    <path
       style="fill:none;stroke:#ffffff;stroke-width:0.68345809px;stroke-linecap:butt;stroke-linejoin:miter;stroke-opacity:1"
       d="m 300.31993,57.748897 0,-9.00546 11.5267,-0.450276 0,-8.55519"
       id="path5525"
       inkscape:connector-curvature="0" />
    <flowRoot
       xml:space="preserve"
       id="flowRoot5527"
       style="fill:black;stroke:none;stroke-opacity:1;stroke-width:1px;stroke-linejoin:miter;stroke-linecap:butt;fill-opacity:1;font-family:Sans;font-style:normal;font-weight:normal;font-size:40px;line-height:125%;letter-spacing:0px;word-spacing:0px"><flowRegion
         id="flowRegion5529"><rect
           id="rect5531"
           width="480"
           height="112.5"
           x="-2.5"
           y="-36.666668" /></flowRegion><flowPara
         id="flowPara5533" /></flowRoot>    <path
       style="fill:#0000ff;stroke:#000000;stroke-width:1px;stroke-linecap:butt;stroke-linejoin:miter;stroke-opacity:1"
       d="m 289.16667,31.666667 0,10.833333"
       id="path3085"
       inkscape:connector-curvature="0" />
    <path
       style="fill:#00ffff;stroke:#000000;stroke-width:1px;stroke-linecap:butt;stroke-linejoin:miter;stroke-opacity:1"
       d="m 311.66667,18.333333 17.5,0"
       id="path3087"
       inkscape:connector-curvature="0" />
    <path
       style="fill:#e3dbdb;stroke:#000000;stroke-width:1px;stroke-linecap:butt;stroke-linejoin:miter;stroke-opacity:1"
       d="m 289.16667,31.666667 -0.83334,11.666666"
       id="path3089"
       inkscape:connector-curvature="0" />
    <path
       style="fill:none;stroke:#ffffff;stroke-width:1px;stroke-linecap:butt;stroke-linejoin:miter;stroke-opacity:1"
       d="m 310.83333,17.5 18.33334,0"
       id="path3093"
       inkscape:connector-curvature="0" />
    <path
       style="fill:none;stroke:#000000;stroke-width:1px;stroke-linecap:butt;stroke-linejoin:miter;stroke-opacity:1"
       d="m 335,31.666667 -1.66667,-0.833334"
       id="path3095"
       inkscape:connector-curvature="0" />
    <path
       style="fill:#ffffff;stroke:#000000;stroke-width:1px;stroke-linecap:butt;stroke-linejoin:miter;stroke-opacity:1;fill-opacity:1"
       d="m 333.33333,20.833333 0,9.166667"
       id="path3097"
       inkscape:connector-curvature="0" />
    <path
       style="fill:none;stroke:#ffffff;stroke-width:1px;stroke-linecap:butt;stroke-linejoin:miter;stroke-opacity:1"
       d="m 328.33333,43.333333 -15,0"
       id="path3869"
       inkscape:connector-curvature="0" />
    <path
       style="fill:none;stroke:#ffffff;stroke-width:1px;stroke-linecap:butt;stroke-linejoin:miter;stroke-opacity:1"
       d="m 290.83333,21.666667 0,20.833333"
       id="path3875"
       inkscape:connector-curvature="0" />
    <path
       style="fill:none;stroke:#ffffff;stroke-width:1px;stroke-linecap:butt;stroke-linejoin:miter;stroke-opacity:1"
       d="m 330,20.833333 0,10"
       id="path3877"
       inkscape:connector-curvature="0" />
  </g>
</svg>
